HIERARCHY
ROOT Hips
{
	OFFSET	0.00	0.00	0.00
	CHANNELS 6 Xposition Yposition Zposition Zrotation Xrotation Yrotation
	JOINT LeftUpLeg
	{
		OFFSET	 0.126116	-0.014019	-0.065224
		CHANNELS 3 Zrotation Xrotation Yrotation
		JOINT LeftLeg
		{
			OFFSET	 0.000000	 0.000000	 0.569914
			CHANNELS 3 Zrotation Xrotation Yrotation
			JOINT LeftFoot
			{
				OFFSET	 0.000000	 0.000000	 0.544423
				CHANNELS 3 Zrotation Xrotation Yrotation
				JOINT LeftToeBase
				{
					OFFSET	 0.000000	 0.000000	 0.207117
					CHANNELS 3 Zrotation Xrotation Yrotation
					End Site
					{
						OFFSET	 0.000000	 0.000000	 0.207117
					}
				}
			}
		}
	}
	JOINT RightUpLeg
	{
		OFFSET	-0.124023	-0.008373	-0.065224
		CHANNELS 3 Zrotation Xrotation Yrotation
		JOINT RightLeg
		{
			OFFSET	 0.000000	 0.000000	 0.570047
			CHANNELS 3 Zrotation Xrotation Yrotation
			JOINT RightFoot
			{
				OFFSET	 0.000000	 0.000000	 0.544354
				CHANNELS 3 Zrotation Xrotation Yrotation
				JOINT RightToeBase
				{
					OFFSET	 0.000000	 0.000000	 0.207540
					CHANNELS 3 Zrotation Xrotation Yrotation
					End Site
					{
						OFFSET	 0.000000	 0.000000	 0.207540
					}
				}
			}
		}
	}
	JOINT Spine
	{
		OFFSET	 0.000184	-0.007763	 0.117403
		CHANNELS 3 Zrotation Xrotation Yrotation
		JOINT Spine1
		{
			OFFSET	 0.000000	 0.000000	 0.137269
			CHANNELS 3 Zrotation Xrotation Yrotation
			JOINT Spine2
			{
				OFFSET	 0.000000	 0.000000	 0.156879
				CHANNELS 3 Zrotation Xrotation Yrotation
				JOINT LeftShoulder
				{
					OFFSET	 0.080501	-0.002496	 0.160144
					CHANNELS 3 Zrotation Xrotation Yrotation
					JOINT LeftArm
					{
						OFFSET	 0.000000	 0.000000	 0.164363
						CHANNELS 3 Zrotation Xrotation Yrotation
						JOINT LeftForeArm
						{
							OFFSET	 0.000000	 0.000000	 0.364576
							CHANNELS 3 Zrotation Xrotation Yrotation
							JOINT LeftHand
							{
								OFFSET	 0.000000	 0.000000	 0.360812
								CHANNELS 3 Zrotation Xrotation Yrotation
								JOINT LeftHandIndex1
								{
									OFFSET	 0.000000	 0.000000	 0.086006
									CHANNELS 3 Zrotation Xrotation Yrotation
									JOINT LeftHandIndex2
									{
										OFFSET	 0.000000	 0.000000	 0.047236
										CHANNELS 3 Zrotation Xrotation Yrotation
										JOINT LeftHandIndex3
										{
											OFFSET	-0.004284	-0.000551	 0.038166
											CHANNELS 3 Zrotation Xrotation Yrotation
											End Site
											{
												OFFSET	-0.004284	-0.000551	 0.038166
											}
										}
									}
								}
							}
						}
					}
				}
				JOINT Neck
				{
					OFFSET	 0.000000	 0.000000	 0.176489
					CHANNELS 3 Zrotation Xrotation Yrotation
					JOINT Head
					{
						OFFSET	 0.000000	-0.001747	 0.077940
						CHANNELS 3 Zrotation Xrotation Yrotation
						End Site
						{
							OFFSET	 0.000000	-0.001747	 0.077940
						}
					}
				}
				JOINT RightShoulder
				{
					OFFSET	-0.080363	 0.000306	 0.159706
					CHANNELS 3 Zrotation Xrotation Yrotation
					JOINT RightArm
					{
						OFFSET	 0.000000	 0.000000	 0.164196
						CHANNELS 3 Zrotation Xrotation Yrotation
						JOINT RightForeArm
						{
							OFFSET	 0.000000	 0.000000	 0.365611
							CHANNELS 3 Zrotation Xrotation Yrotation
							JOINT RightHand
							{
								OFFSET	 0.000000	 0.000000	 0.360648
								CHANNELS 3 Zrotation Xrotation Yrotation
								JOINT RightHandIndex1
								{
									OFFSET	 0.000000	 0.000000	 0.069977
									CHANNELS 3 Zrotation Xrotation Yrotation
									JOINT RightHandIndex2
									{
										OFFSET	 0.000000	 0.000000	 0.052305
										CHANNELS 3 Zrotation Xrotation Yrotation
										JOINT RightHandIndex3
										{
											OFFSET	 0.009002	-0.000782	 0.042196
											CHANNELS 3 Zrotation Xrotation Yrotation
											End Site
											{
												OFFSET	 0.009002	-0.000782	 0.042196
											}
										}
									}
								}
							}
						}
					}
				}
			}
		}
	}
}
MOTION
Frames:    9
Frame Time: 0.03333334
-4.415763	-16.251890	 0.118625	-39.039970	 1.601352	 0.485110	 2.253359	-33.982380	 172.402700	-5.671705	-67.453960	-6.069125	 176.864100	 87.122340	-179.610500	-2.333623	 36.467810	-0.184683	-0.009720	-35.501110	-177.526700	 1.629119	-71.736920	 4.332556	-177.608600	 85.653330	 179.319900	 2.405301	 21.089100	-0.151404	 25.489640	 13.681640	 2.369537	-11.760770	 6.961825	-1.444204	-13.648960	 3.631642	-0.473050	-132.305900	 89.496040	-136.099800	 48.492960	 61.199580	-76.932010	-32.391750	 8.910625	-29.485750	 33.870120	-4.776546	-3.299689	-3.812334	 37.924440	-2.927599	-2.450526	 36.184240	 0.754587	-1.378229	 35.397820	-2.634230	 1.652548	 2.413926	-3.118233	-2.848462	 6.672060	 3.786190	 94.067840	 85.973770	 171.306500	-54.084420	 70.618520	 73.295100	 12.210210	-0.148390	 33.908390	-60.125260	-7.859259	 6.299569	 6.437017	 35.671460	-0.771858	 2.830251	 35.756010	-7.813440	-2.350882	 35.473990	 5.254307
-4.409157	-16.251000	 0.140748	-40.698510	 4.493606	-0.014200	 2.870408	-35.315480	 173.033200	-4.376265	-64.298720	-4.164240	 174.119600	 88.457700	-176.327200	-2.354883	 33.814380	-0.120680	 1.050928	-36.989450	-177.327500	 0.567983	-67.993700	 3.933372	-175.471700	 86.918400	 177.322600	 2.406621	 19.896580	-0.175153	 19.793860	 13.639910	 2.330848	-11.479960	 6.465970	-1.379663	-13.080760	 3.117527	-0.512148	-121.516700	 89.358980	-146.935200	 45.092380	 60.956780	-74.888900	-28.343720	 5.092673	-26.098530	 40.924920	-5.145922	-2.700288	-3.812334	 37.924440	-2.927599	-2.450526	 36.184240	 0.754587	-1.378229	 35.397820	-2.634230	 1.974333	 2.074334	-2.948517	-2.473639	 6.298330	 4.796353	 94.383800	 86.052960	 170.806900	-53.993090	 71.421960	 72.597350	 8.243952	-3.726961	 30.057440	-67.102030	-8.533827	 5.330116	 6.437017	 35.671460	-0.771858	 2.830251	 35.756010	-7.813440	-2.350882	 35.473990	 5.254307
-4.404006	-16.251900	 0.158733	-42.378140	 6.545181	-0.606534	 3.957224	-35.652900	 173.865700	-4.125810	-61.418500	-2.991271	 153.973000	 89.627270	-155.782500	-2.366789	 32.041900	-0.079628	 1.888444	-38.266540	-176.682400	-1.637621	-65.488320	 2.350042	-170.526400	 88.396000	 171.818500	 2.407125	 19.235160	-0.188241	 11.841400	 14.157450	 2.648161	-11.063670	 6.416999	-1.175481	-12.519970	 2.848714	-0.519489	-118.307600	 89.300310	-150.179900	 42.283830	 60.846790	-74.357100	-23.110070	 1.353640	-21.944950	 47.866750	-5.419859	-2.107647	-3.812334	 37.924440	-2.927599	-2.450526	 36.184240	 0.754587	-1.378229	 35.397820	-2.634230	 2.258599	 1.859807	-2.805657	-2.169095	 6.092091	 5.345736	 94.559970	 86.112240	 170.562500	-53.443670	 72.441350	 71.306500	 2.698910	-7.159525	 24.835860	-73.982350	-9.035236	 4.366303	 6.437017	 35.671460	-0.771858	 2.830251	 35.756010	-7.813440	-2.350882	 35.473990	 5.254307
-4.402613	-16.252290	 0.170672	-42.559930	 7.926778	-0.676425	 4.445500	-36.123620	 174.096500	-3.512348	-59.402440	-2.001141	 29.677810	 89.676750	-31.032670	-2.369105	 31.662960	-0.071014	 1.455501	-38.500310	-176.583500	-2.320639	-63.315200	 1.321298	-163.327700	 89.087860	 164.197100	 2.406909	 19.543240	-0.182157	 2.485829	 14.469680	 2.513306	-11.068580	 6.699462	-1.219041	-12.228350	 2.979333	-0.493309	-119.944100	 89.375360	-148.750100	 40.862820	 61.162780	-75.282370	-17.722440	-1.450602	-17.591740	 53.081120	-5.574927	-1.658989	-3.812334	 37.924440	-2.927599	-2.450526	 36.184240	 0.754587	-1.378229	 35.397820	-2.634230	 2.154414	 2.012690	-2.713141	-1.958140	 6.056610	 5.066123	 94.640950	 86.106150	 170.392200	-51.662330	 73.774930	 68.569120	-3.430355	-9.503886	 18.977300	-79.391870	-9.315580	 3.632673	 6.437017	 35.671460	-0.771858	 2.830251	 35.756010	-7.813440	-2.350882	 35.473990	 5.254307
-4.404335	-16.253610	 0.178634	-42.065540	 8.746944	-0.681746	 4.416466	-36.268630	 174.125200	-2.848086	-58.213630	-1.402234	 14.072060	 89.347180	-15.107790	-2.370597	 31.413310	-0.065366	 0.886641	-38.419080	-176.652900	-1.480323	-61.996360	 1.616008	-156.955600	 89.345990	 158.016400	 2.405527	 20.912200	-0.154939	-7.420506	 14.650510	 2.506663	-11.098450	 6.955517	-1.474731	-11.990410	 3.184609	-0.462085	-138.047200	 89.604350	-130.811900	 41.226490	 61.133560	-77.109500	-12.001850	-3.408201	-16.901670	 55.800990	-5.641558	-1.407485	-3.812334	 37.924440	-2.927599	-2.450526	 36.184240	 0.754587	-1.378229	 35.397820	-2.634230	 1.919646	 2.006780	-2.969557	-1.821803	 6.158277	 4.712118	 94.297870	 85.850460	 170.622600	-48.788300	 75.356100	 64.603250	-9.557055	-11.031590	 15.869530	-83.006540	-9.447046	 3.170504	 6.437017	 35.671460	-0.771858	 2.830251	 35.756010	-7.813440	-2.350882	 35.473990	 5.254307
-4.409045	-16.256960	 0.184037	-41.339240	 9.280178	-0.709467	 4.180035	-36.246940	 174.147700	-2.281868	-57.306520	-1.058851	 10.186290	 89.079320	-11.030410	-2.374910	 30.656120	-0.048373	 0.801879	-38.183490	-176.847900	-0.178931	-61.174060	 2.684026	-153.176000	 89.433860	 154.855700	 2.400524	 23.677920	-0.099016	-18.347960	 14.509690	 2.577551	-10.990560	 7.088279	-1.641691	-11.635490	 3.332976	-0.433191	 176.472200	 89.721640	-85.477000	 43.624790	 60.630740	-79.741030	-5.346836	-6.289818	-21.504290	 56.189360	-5.643106	-1.368414	-3.812334	 37.924440	-2.927599	-2.450526	 36.184240	 0.754587	-1.378229	 35.397820	-2.634230	 1.684233	 1.924825	-3.146938	-1.657566	 6.142872	 4.125440	 94.008170	 85.619610	 170.821000	-46.540430	 76.488680	 61.032270	-16.263290	-13.053480	 17.267580	-84.267090	-9.483959	 3.015835	 6.437017	 35.671460	-0.771858	 2.830251	 35.756010	-7.813440	-2.350882	 35.473990	 5.254307
-4.414846	-16.261700	 0.186849	-40.750980	 9.446261	-0.794283	 4.017600	-35.814450	 174.265200	-2.046952	-56.695350	-0.973039	 9.007832	 88.991670	-9.813333	-2.374525	 30.726010	-0.049929	 0.858120	-37.507270	-176.960100	 0.498618	-60.734410	 3.323616	-164.134700	 89.095180	 166.218000	 2.398688	 24.406040	-0.084056	-27.512540	 14.281890	 2.747701	-10.682190	 7.098934	-1.700654	-11.191350	 3.376884	-0.412245	 146.323600	 89.677360	-55.414620	 46.189470	 59.889180	-82.240260	 0.616099	-9.731745	-25.197030	 54.540000	-5.598035	-1.518364	-3.812334	 37.924440	-2.927599	-2.450526	 36.184240	 0.754587	-1.378229	 35.397820	-2.634230	 1.557907	 1.830574	-3.411289	-1.535460	 6.082463	 3.984830	 93.799960	 85.483250	 171.035200	-46.164390	 76.932540	 59.552250	-22.358670	-15.635050	 18.792920	-83.071780	-9.419078	 3.208842	 6.437017	 35.671460	-0.771858	 2.830251	 35.756010	-7.813440	-2.350882	 35.473990	 5.254307
-4.420700	-16.266770	 0.187984	-39.794470	 9.523618	-0.638569	 3.724628	-35.562500	 174.158900	-1.546959	-56.274930	-0.751729	 10.203390	 89.164210	-10.883400	-2.374458	 30.737720	-0.050191	 0.458276	-37.002990	-177.131300	 0.954084	-60.340170	 3.435405	-169.239600	 88.790660	 171.428700	 2.399430	 24.123030	-0.089882	-35.698530	 14.004710	 2.503456	-10.358620	 7.183349	-1.756130	-10.680990	 3.486436	-0.383086	 142.218400	 89.679180	-51.444050	 48.563060	 59.351090	-84.228070	 6.897686	-13.827950	-27.688600	 51.510670	-5.496891	-1.839855	-3.812334	 37.924440	-2.927599	-2.450526	 36.184240	 0.754587	-1.378229	 35.397820	-2.634230	 1.416378	 1.798465	-3.485703	-1.418786	 6.233593	 3.927163	 93.867580	 85.540780	 170.987300	-47.530520	 76.788300	 60.273190	-29.026520	-18.860230	 20.034840	-80.016820	-9.221202	 3.733086	 6.437017	 35.671460	-0.771858	 2.830251	 35.756010	-7.813440	-2.350882	 35.473990	 5.254307
-4.426691	-16.272190	 0.187870	-38.986790	 9.475103	-0.523174	 3.583879	-35.093550	 174.055300	-0.965519	-56.052780	-0.374010	 15.204470	 89.490250	-15.651150	-2.374861	 30.665700	-0.048582	-0.065490	-36.403140	-177.219800	 1.387278	-60.085440	 3.442648	-172.152300	 88.529000	 174.373100	 2.399866	 23.948330	-0.093475	-42.005360	 13.779270	 2.483450	-9.771007	 7.364572	-1.803743	-10.030890	 3.715767	-0.339508	 136.739000	 89.659650	-46.016940	 50.991420	 59.000400	-86.168430	 12.993170	-18.248780	-29.162570	 45.940870	-5.286575	-2.377912	-3.812334	 37.924440	-2.927599	-2.450526	 36.184240	 0.754587	-1.378229	 35.397820	-2.634230	 1.294405	 1.734831	-3.537781	-1.314606	 6.568310	 3.572477	 93.832500	 85.566500	 171.109300	-50.155370	 76.120630	 62.721700	-35.530850	-22.660890	 21.079700	-73.904450	-8.808545	 4.648462	 6.437017	 35.671460	-0.771858	 2.830251	 35.756010	-7.813440	-2.350882	 35.473990	 5.254307
